M48
; DRILL file {KiCad 8.0.6} date 2025-02-05T19:47:27+1300
; FORMAT={-:-/ absolute / inch / decimal}
; #@! TF.CreationDate,2025-02-05T19:47:27+13:00
; #@! TF.GenerationSoftware,Kicad,Pcbnew,8.0.6
; #@! TF.FileFunction,Plated,1,2,PTH
FMAT,2
INCH
; #@! TA.AperFunction,Plated,PTH,ComponentDrill
T1C0.0315
; #@! TA.AperFunction,Plated,PTH,ComponentDrill
T2C0.0394
%
G90
G05
T1
X2.5845Y-4.3765
X2.5845Y-4.4765
X2.5845Y-4.5765
X2.5846Y-2.4766
X2.5846Y-2.5766
X2.5846Y-2.6766
X2.5846Y-2.7766
X2.5846Y-2.8766
X2.5846Y-2.9766
X2.5846Y-3.0766
X2.5846Y-3.1766
X2.5846Y-3.2766
X2.5846Y-3.3766
X2.5846Y-3.4766
X2.5846Y-3.5766
X2.5846Y-3.6766
X2.5846Y-3.7766
X2.5846Y-3.8766
X2.5846Y-3.9766
X2.5846Y-4.0766
X2.5846Y-4.1766
X2.5846Y-4.2766
X3.5846Y-2.4766
X3.5846Y-2.5766
X3.5846Y-2.6766
X3.5846Y-2.7766
X3.5846Y-2.8766
X3.5846Y-2.9766
X3.5846Y-3.0766
X3.5846Y-3.1766
X3.5846Y-3.2766
X3.5846Y-3.3766
X3.5846Y-3.4766
X3.5846Y-3.5766
X3.5846Y-3.6766
X3.5846Y-3.7766
X3.5846Y-3.8766
X3.5846Y-3.9766
X3.5846Y-4.0766
X3.5846Y-4.1766
X3.5846Y-4.2766
X3.5846Y-4.3766
X3.5846Y-4.4766
X3.5846Y-4.5766
T2
X2.1244Y-2.6528
X2.1244Y-2.7528
X2.1244Y-2.8528
X2.1244Y-2.9528
X2.1244Y-4.7787
X2.1244Y-4.8787
X2.1244Y-4.9787
X2.1244Y-5.0787
X2.2244Y-2.6528
X2.2244Y-2.7528
X2.2244Y-2.8528
X2.2244Y-2.9528
X2.2244Y-4.7787
X2.2244Y-4.8787
X2.2244Y-4.9787
X2.2244Y-5.0787
X3.8967Y-2.2854
X3.8967Y-2.3839
X3.8967Y-2.6398
X3.8967Y-2.7382
X3.8967Y-2.9941
X3.8967Y-3.0925
X3.8967Y-3.3484
X3.8967Y-3.4469
X3.8967Y-3.7028
X3.8967Y-3.8012
X3.8967Y-4.0571
X3.8967Y-4.1555
X3.8967Y-4.4114
X3.8967Y-4.5098
X3.8967Y-4.7657
X3.8967Y-4.8642
X3.8967Y-5.1201
X3.8967Y-5.2185
X3.8967Y-5.4744
X3.8967Y-5.5728
M30
