%TF.GenerationSoftware,KiCad,Pcbnew,8.0.6*%
%TF.CreationDate,2025-02-05T19:47:27+13:00*%
%TF.ProjectId,Door Controller,446f6f72-2043-46f6-9e74-726f6c6c6572,rev?*%
%TF.SameCoordinates,Original*%
%TF.FileFunction,Legend,Bot*%
%TF.FilePolarity,Positive*%
%FSLAX46Y46*%
G04 Gerber Fmt 4.6, Leading zero omitted, Abs format (unit mm)*
G04 Created by KiCad (PCBNEW 8.0.6) date 2025-02-05 19:47:27*
%MOMM*%
%LPD*%
G01*
G04 APERTURE LIST*
G04 Aperture macros list*
%AMRoundRect*
0 Rectangle with rounded corners*
0 $1 Rounding radius*
0 $2 $3 $4 $5 $6 $7 $8 $9 X,Y pos of 4 corners*
0 Add a 4 corners polygon primitive as box body*
4,1,4,$2,$3,$4,$5,$6,$7,$8,$9,$2,$3,0*
0 Add four circle primitives for the rounded corners*
1,1,$1+$1,$2,$3*
1,1,$1+$1,$4,$5*
1,1,$1+$1,$6,$7*
1,1,$1+$1,$8,$9*
0 Add four rect primitives between the rounded corners*
20,1,$1+$1,$2,$3,$4,$5,0*
20,1,$1+$1,$4,$5,$6,$7,0*
20,1,$1+$1,$6,$7,$8,$9,0*
20,1,$1+$1,$8,$9,$2,$3,0*%
G04 Aperture macros list end*
%ADD10O,2.000000X1.700000*%
%ADD11RoundRect,0.250000X0.750000X-0.600000X0.750000X0.600000X-0.750000X0.600000X-0.750000X-0.600000X0*%
%ADD12C,3.200000*%
%ADD13C,1.700000*%
%ADD14RoundRect,0.250000X0.600000X0.600000X-0.600000X0.600000X-0.600000X-0.600000X0.600000X-0.600000X0*%
%ADD15O,2.000000X1.200000*%
%ADD16R,2.000000X1.200000*%
G04 APERTURE END LIST*
%LPC*%
D10*
%TO.C,J7*%
X98975000Y-112050000D03*
D11*
X98975000Y-114550000D03*
%TD*%
D10*
%TO.C,J1*%
X98975000Y-58050000D03*
D11*
X98975000Y-60550000D03*
%TD*%
D10*
%TO.C,J4*%
X98975000Y-85050000D03*
D11*
X98975000Y-87550000D03*
%TD*%
D12*
%TO.C,h1*%
X53500000Y-53500000D03*
%TD*%
D10*
%TO.C,J5*%
X98975000Y-94050000D03*
D11*
X98975000Y-96550000D03*
%TD*%
D10*
%TO.C,J9*%
X98975000Y-130050000D03*
D11*
X98975000Y-132550000D03*
%TD*%
D10*
%TO.C,J8*%
X98975000Y-121050000D03*
D11*
X98975000Y-123550000D03*
%TD*%
D10*
%TO.C,J3*%
X98975000Y-76050000D03*
D11*
X98975000Y-78550000D03*
%TD*%
D12*
%TO.C,h2*%
X110600000Y-53500000D03*
%TD*%
D13*
%TO.C,J21*%
X53960000Y-67380000D03*
X56500000Y-67380000D03*
X53960000Y-69920000D03*
X56500000Y-69920000D03*
X53960000Y-72460000D03*
X56500000Y-72460000D03*
X53960000Y-75000000D03*
D14*
X56500000Y-75000000D03*
%TD*%
D13*
%TO.C,J22*%
X53960000Y-121380000D03*
X56500000Y-121380000D03*
X53960000Y-123920000D03*
X56500000Y-123920000D03*
X53960000Y-126460000D03*
X56500000Y-126460000D03*
X53960000Y-129000000D03*
D14*
X56500000Y-129000000D03*
%TD*%
D15*
%TO.C,U1*%
X91050000Y-62904740D03*
X91050000Y-65444740D03*
X91050000Y-67984740D03*
X91050000Y-70524740D03*
X91050000Y-73064740D03*
X91050000Y-75604740D03*
X91050000Y-78144740D03*
X91050000Y-80684740D03*
X91050000Y-83224740D03*
X91050000Y-85764740D03*
X91050000Y-88304740D03*
X91050000Y-90844740D03*
X91050000Y-93384740D03*
X91050000Y-95924740D03*
X91050000Y-98464740D03*
X91050000Y-101004740D03*
X91050000Y-103544740D03*
X91050000Y-106084740D03*
X91050000Y-108624740D03*
X91050000Y-111164740D03*
X91050000Y-113704740D03*
X91050000Y-116244740D03*
X65646320Y-116242020D03*
X65646320Y-113702020D03*
X65646320Y-111162020D03*
X65650000Y-108624740D03*
X65650000Y-106084740D03*
X65650000Y-103544740D03*
X65650000Y-101004740D03*
X65650000Y-98464740D03*
X65650000Y-95924740D03*
X65650000Y-93384740D03*
X65650000Y-90844740D03*
X65650000Y-88304740D03*
X65650000Y-85764740D03*
X65650000Y-83224740D03*
X65650000Y-80684740D03*
X65650000Y-78144740D03*
X65650000Y-75604740D03*
X65650000Y-73064740D03*
X65650000Y-70524740D03*
X65650000Y-67984740D03*
X65650000Y-65444740D03*
D16*
X65650000Y-62904740D03*
%TD*%
D12*
%TO.C,h4*%
X110600000Y-146500000D03*
%TD*%
D10*
%TO.C,J2*%
X98975000Y-67050000D03*
D11*
X98975000Y-69550000D03*
%TD*%
D12*
%TO.C,h3*%
X53500000Y-146500000D03*
%TD*%
D10*
%TO.C,J10*%
X98975000Y-139050000D03*
D11*
X98975000Y-141550000D03*
%TD*%
D10*
%TO.C,J6*%
X98975000Y-103050000D03*
D11*
X98975000Y-105550000D03*
%TD*%
%LPD*%
M02*
